<svg width="111" height="85" viewBox="0 0 111 85" fill="none" xmlns="http://www.w3.org/2000/svg">
<path d="M92.4997 16.5H57.4997C54.333 30.6667 47.7997 61.6 46.9997 72C46.1997 82.4 51.333 84.6667 53.9997 84.5H96.4997C104.1 82.9 104 75.5 103 72L92.4997 16.5Z" fill="#7D92F5" stroke="#09102C" stroke-linejoin="round"/>
<path d="M92.5 16.497H57.5C59.5001 13.6637 65.7003 8.09701 74.5003 8.49701C83.3003 8.89701 90.1668 13.997 92.5 16.497Z" fill="#09102C" stroke="#09102C" stroke-linejoin="round"/>
<path d="M69.4993 9C69.3327 6.33333 70.1993 1 74.9993 1C79.7993 1 80.6664 6.66667 80.5 9.5" stroke="#09102C"/>
<path d="M47 16.5H57.4997C56.6283 20.3983 55.502 25.5661 54.3104 31.2263L47 16.5Z" fill="#5A7DF3" stroke="#09102C" stroke-linejoin="round"/>
<path d="M102.488 71.9669L92.0629 17L64.4159 17.0103L58.6815 76.1283C58.561 77.3708 58.5341 78.6522 59.0349 79.7957C59.9141 81.803 61.8667 83.9994 65.5 83.9994L96.1684 84.2029C103.768 82.6029 103.488 75.4669 102.488 71.9669Z" fill="#677BF9"/>
<path d="M102.536 71.9791L92.0763 16.9453L69.4314 16.9865L67.5949 74.9483C67.5321 76.9323 67.7067 78.996 68.9128 80.5726C70.262 82.3361 72.4665 84.0098 75.4807 84.0098L96.2157 84.0653C103.816 82.4653 103.536 75.4791 102.536 71.9791Z" fill="#3E5CF1"/>
<path d="M87.5 25.5L94 66.5" stroke="#09102C" stroke-linecap="round" stroke-linejoin="round"/>
<path d="M110.501 31.4967C110.501 19.8967 98.8793 18.6634 93.0684 19.4967L94.0011 24.4269C96.8344 23.9502 103.001 24.1967 105.001 28.9967C107.401 34.9967 101.83 45.1634 98.744 49.4967L100.447 58.4967C103.798 52.4967 110.501 38.6967 110.501 31.4967Z" fill="#3E5CF1" stroke="#09102C" stroke-linejoin="round"/>
<path d="M24.5009 24.5C23.6675 27.6667 23.5009 34.7 29.5009 37.5C32.3002 39.5 30 44.6667 28.5 47M36 15C34.6667 16.5 32.1 20.4 32.5 24C33 28.5 35.5 33 38 34.5C40.5 36 40.5 43.5 37 45.5M41.5 22C40.8333 24.1667 40.1 28.9 42.5 30.5C45.5 32.5 47 35.5 46.5 39C46.1 41.8 45 45.1667 44.5 46.5" stroke="#09102C" stroke-linecap="round" stroke-linejoin="round"/>
<path d="M59.5 50.5H14.5V65.253C14.5 67.0738 14.73 68.9037 15.5223 70.5431C18.242 76.1703 24.9792 84.1565 37 84.5C49.1994 84.8486 55.9571 76.3637 58.5963 70.426C59.2946 68.855 59.5 67.1271 59.5 65.4078V50.5Z" fill="#7A8FF1" stroke="#09102C" stroke-linejoin="round"/>
<path d="M8 54.5H14.5V61.25C11.1122 59.415 8.85354 60.2117 7.58335 61.4254C6.66353 62.3042 6.5 63.6536 6.5 64.9258V65.0098C6.5 65.6683 6.52398 66.3451 6.80086 66.9426C8.13624 69.8241 12.3718 68.9121 14.5 68C14.9736 69.5155 15.8643 71.4696 17.2181 73.5C10.4363 76.5 0.5 74.5 0.5 65C0.5 57.4 5.5 54.8333 8 54.5Z" fill="#5D77F0" stroke="#09102C" stroke-linejoin="round"/>
<path d="M59.0161 65.3741L58.9818 50.9766L27.9727 51.016L27.9967 65.004C28.4967 69.8622 31.912 80.0312 43.112 83.4013C51.2552 81.2703 55.9883 75.1301 58.1049 70.4335C58.8172 68.853 59.0203 67.1077 59.0161 65.3741Z" fill="#3C5DF1"/>
<path d="M55.5 53.5V63" stroke="#09102C" stroke-linecap="round"/>
<path d="M44 65L47.5 62L51 65V72.5H44V65Z" fill="#28AB6C" stroke="#09102C" stroke-linejoin="round"/>
<path d="M47.5 50.5V62" stroke="#09102C" stroke-linecap="round"/>
</svg>
