<svg width="639" height="641" viewBox="0 0 639 641" fill="none" xmlns="http://www.w3.org/2000/svg">
<path d="M445.666 1.20179C432.199 4.53512 424.332 18.2685 425.266 37.2018C425.399 42.4018 425.399 46.6685 424.999 46.6685C422.599 46.6685 409.799 31.7351 406.732 25.7351C402.866 17.6018 400.732 16.1351 394.999 17.2018C391.799 17.8685 390.332 19.4685 387.132 25.7351C383.666 32.5351 383.132 34.9351 383.132 45.2018C382.999 56.0018 383.399 57.4685 388.066 66.9351C391.799 74.8018 395.132 79.0685 401.799 85.0685L410.599 92.9351L404.599 96.4018C393.132 103.202 377.532 124.668 372.999 140.002C370.599 148.268 369.666 149.468 363.932 153.202C359.399 156.002 349.932 159.335 333.266 163.868C305.799 171.468 304.066 172.135 302.866 176.668C301.799 180.802 303.132 184.402 307.266 189.335C312.066 195.068 315.932 196.802 330.066 199.202C346.466 202.002 349.932 203.868 350.999 210.402C354.732 234.135 361.666 252.802 370.999 263.602C375.799 269.202 389.799 277.335 394.732 277.335C397.399 277.335 397.399 277.468 394.599 280.135C392.999 281.602 391.932 283.335 392.332 284.002C392.732 284.535 391.266 286.135 389.266 287.468C387.266 288.668 381.399 293.868 376.199 298.935L366.732 308.135L364.999 299.735C361.399 280.935 353.932 269.602 343.666 267.335C340.332 266.668 338.999 265.335 337.532 261.602C336.466 258.802 334.999 255.602 334.199 254.268C333.532 252.935 323.266 230.402 311.532 204.268C288.732 153.602 282.866 141.735 268.066 117.335C259.532 103.202 254.332 97.8685 254.332 103.335C254.332 106.535 268.332 142.402 276.999 161.335C281.266 170.535 293.132 195.868 303.532 217.602C313.799 239.335 322.332 257.735 322.332 258.402C322.332 259.068 323.799 261.735 325.532 264.402L328.732 269.068L324.066 265.868C318.866 262.402 311.666 261.735 305.532 264.002C302.466 265.202 301.132 264.935 296.999 262.002C294.332 260.135 290.732 258.668 288.866 258.668C285.799 258.668 285.666 258.268 285.666 249.602C285.532 239.602 281.666 229.068 276.199 223.868C273.132 220.935 272.599 220.935 264.599 222.402C260.066 223.202 251.266 224.668 244.999 225.335C215.132 229.068 174.732 238.135 169.132 242.402C166.199 244.535 165.666 246.135 165.266 253.468C164.599 265.202 167.399 283.735 170.599 289.068C173.932 294.535 176.732 296.002 183.799 296.002C188.999 296.002 194.466 295.202 223.266 290.135C232.199 288.535 238.866 289.202 233.799 291.068C228.066 293.335 233.666 304.535 247.532 319.068C253.266 325.068 261.666 335.202 266.066 341.468C278.466 359.068 290.732 368.402 307.666 373.468C313.532 375.202 313.532 375.202 309.666 376.135C299.132 378.402 267.799 384.802 238.332 390.802L205.666 397.468L201.666 392.402C197.799 387.468 188.466 376.402 184.199 371.602C182.599 369.735 180.732 369.202 176.866 369.602C171.799 370.002 171.666 369.868 170.999 365.335C168.599 350.668 153.132 314.135 138.999 289.868C130.999 276.268 123.932 269.202 113.666 264.535C105.799 260.935 99.3989 261.335 96.3323 265.735C94.5989 268.268 94.3323 268.002 91.1323 260.668C89.1323 256.402 87.6656 252.668 87.6656 252.268C87.6656 251.868 74.0656 224.268 57.5323 190.935C33.6656 143.068 27.6656 130.135 29.1323 129.202C30.1989 128.535 33.6656 128.002 36.9989 128.002C44.0656 128.002 88.4656 123.868 176.999 115.202C222.732 110.802 242.066 108.402 243.132 107.068C243.932 106.135 245.532 105.335 246.732 105.335C248.732 105.335 251.666 99.0685 251.666 94.6685C251.666 92.4018 246.066 89.8685 243.799 91.2018C243.266 91.6018 239.799 92.2685 236.199 92.6685C232.599 93.2018 214.732 95.6018 196.332 98.0018C178.066 100.535 147.399 104.402 128.332 106.668C109.266 108.935 77.1323 113.068 56.9989 116.002C36.8656 118.802 16.7323 121.468 12.4656 121.868C8.19893 122.268 4.19893 123.202 3.6656 124.135C2.99893 124.935 1.93227 131.335 0.998935 138.268C-0.334399 149.068 -0.201065 151.202 1.39893 153.068C2.4656 154.268 11.7989 172.402 22.0656 193.335C32.3323 214.268 44.3323 238.002 48.8656 246.135L56.8656 260.935L51.6656 263.068C43.9323 266.135 42.3323 269.202 38.8656 290.002C38.4656 292.268 38.5989 296.135 39.2656 298.668C40.1989 302.135 39.9323 304.268 37.9323 308.268C34.0656 316.002 33.5323 328.402 36.5989 337.335C38.4656 343.068 38.7323 346.002 37.9323 350.935C36.9989 356.135 37.3989 359.468 40.0656 368.935C49.6656 402.268 58.7323 414.935 79.7989 424.668C86.4656 427.602 92.4656 428.668 118.732 431.468C125.266 432.135 126.332 432.535 125.666 434.402C121.799 444.402 121.666 448.002 124.999 454.268C126.866 457.735 129.932 461.068 131.932 461.868C134.599 463.068 139.932 470.935 152.332 491.335C205.666 579.468 252.466 628.668 291.799 638.002C309.666 642.135 333.266 640.135 354.332 632.668C378.332 624.002 397.266 611.735 414.999 593.068C441.132 565.868 456.866 534.802 455.799 512.668C455.666 508.668 449.532 506.535 442.466 507.868C439.266 508.535 436.199 509.868 435.666 510.802C434.199 512.935 428.866 509.468 404.999 490.935C372.332 465.468 348.066 442.935 336.866 427.735C329.132 417.468 328.999 420.668 338.466 390.402L343.799 373.335L350.599 378.802C374.999 398.002 434.599 423.335 485.266 435.868C507.266 441.335 527.666 444.668 559.266 448.002C588.066 451.068 606.066 453.868 607.799 455.602C609.266 457.202 614.332 498.535 614.332 509.468C614.332 516.668 614.999 520.135 617.532 525.068C621.532 532.802 626.732 538.002 629.666 536.802C632.866 535.602 638.332 522.135 638.332 515.602C638.332 503.202 624.066 422.935 616.999 394.668C602.066 335.868 578.732 294.268 549.666 274.668C530.732 261.868 521.132 257.868 506.199 256.002C478.332 252.535 445.399 256.935 417.399 267.602C416.466 268.002 415.666 267.335 415.666 266.135C415.666 262.935 411.266 261.335 402.066 261.335C382.599 261.202 372.466 250.268 365.132 221.468C363.666 215.202 362.332 208.135 362.332 205.735C362.332 199.602 355.932 192.802 347.532 190.002C343.932 188.802 335.799 187.335 329.532 186.668C323.266 186.135 317.532 185.068 316.866 184.402C315.399 182.935 316.866 182.535 349.666 175.202C360.199 172.802 366.066 170.668 370.599 167.602C377.266 163.068 378.332 161.468 383.132 147.335C386.332 138.135 399.132 115.202 402.732 112.268C403.666 111.335 408.866 108.268 414.199 105.335C421.399 101.468 423.666 100.668 422.999 102.402C418.999 112.535 420.199 130.935 425.532 142.002C428.466 147.735 428.866 149.735 427.666 152.668C426.066 157.068 425.932 161.335 427.666 164.002C429.266 166.535 429.932 165.735 430.732 160.268C431.532 155.735 440.066 145.868 443.666 145.335C448.466 144.668 450.466 145.602 452.599 149.602C456.199 156.135 455.666 178.002 451.799 188.268C448.332 197.335 446.332 199.202 439.532 199.335C432.066 199.602 430.599 201.468 433.399 207.335C436.332 213.602 440.866 215.602 447.266 213.602C451.666 212.268 452.599 212.535 457.532 215.868C460.599 218.002 465.132 220.668 467.666 222.002C470.199 223.335 474.732 226.402 477.532 228.802C485.399 235.602 495.132 238.668 508.066 238.668C537.932 238.668 566.332 222.135 586.199 192.935C596.332 178.135 604.999 153.602 604.999 140.135C604.866 126.135 598.999 108.668 590.599 97.6018C585.399 90.8018 569.132 80.8018 553.399 74.6685C545.532 71.7351 535.932 68.0018 532.199 66.5351C520.732 62.0018 514.199 54.0018 512.332 42.6685C510.999 33.6018 510.466 32.5351 507.132 30.9351C503.799 29.4685 497.132 30.4018 491.932 33.2018C487.932 35.3351 481.399 44.5351 480.332 49.4685C479.266 54.4018 477.932 54.4018 473.932 48.9351C467.266 40.1351 461.799 25.4685 458.999 9.06846C458.466 5.33512 457.266 3.46846 454.332 2.00179C452.199 0.935123 450.332 0.00178953 450.066 0.135123C449.799 0.268456 447.932 0.668456 445.666 1.20179ZM16.9989 148.268C24.7323 166.402 49.1323 213.468 64.7323 240.268C74.1989 256.668 86.0656 277.468 90.8656 286.535C95.7989 295.735 101.399 305.868 103.399 309.202L106.999 315.335L100.332 311.468C96.5989 309.335 92.9989 306.935 92.0656 306.135C91.2656 305.335 79.9323 283.335 66.8656 257.335C43.7989 210.802 33.5323 191.735 18.1989 166.668C10.9989 154.802 10.5989 153.602 11.2656 147.602C11.6656 144.135 12.4656 141.335 12.9989 141.335C13.5323 141.335 15.3989 144.535 16.9989 148.268ZM272.999 244.002C274.866 249.468 277.132 255.335 278.066 257.068C279.666 259.735 279.532 260.535 277.799 262.535C276.599 263.868 275.666 265.735 275.666 266.668C275.666 267.735 271.932 264.935 267.399 260.402C255.399 248.802 249.132 246.002 239.399 248.135C232.866 249.735 228.999 252.668 228.999 256.268C228.999 260.002 232.866 266.935 236.732 270.135L240.066 272.802L225.532 275.068C217.532 276.402 204.466 278.668 196.466 280.135C187.399 281.735 181.399 282.268 180.599 281.468C178.732 279.602 175.666 265.468 175.666 258.402C175.666 251.468 175.266 251.735 188.332 249.335C192.732 248.668 201.132 246.535 206.999 244.802C223.532 239.868 242.599 234.802 246.332 234.402C248.199 234.135 254.199 234.002 259.666 234.002H269.666L272.999 244.002ZM254.332 255.602C259.132 258.268 274.866 276.802 279.132 284.802C280.466 287.335 282.066 289.335 282.599 289.335C284.866 289.335 285.266 282.535 283.132 279.335C280.199 274.935 280.466 269.735 283.532 268.002C289.266 265.068 297.399 271.868 302.732 284.135C306.599 293.068 308.732 294.668 311.266 291.202C312.732 289.335 312.999 286.668 312.466 281.602C311.666 275.068 311.799 274.668 314.599 274.668C319.532 274.668 321.532 276.802 324.999 285.602C329.132 296.135 332.466 296.935 335.666 288.402C338.466 280.668 339.799 279.602 344.199 281.335C349.266 283.202 352.866 292.268 354.599 307.202L356.066 319.602L349.932 329.468C346.599 334.935 341.266 345.068 338.199 352.002C335.132 358.935 332.199 365.202 331.532 365.868C329.666 368.002 312.732 364.268 303.799 359.735C294.332 354.935 283.666 344.668 273.666 330.668C270.199 325.868 263.132 317.602 257.932 312.268C252.732 307.068 249.132 302.668 250.066 302.668C255.266 302.668 270.066 313.868 274.732 321.335C277.666 326.135 282.199 330.535 284.199 330.668C284.866 330.668 284.999 326.935 284.599 322.402C283.132 305.335 267.132 280.802 250.199 269.335C238.599 261.335 235.666 256.268 241.399 253.602C245.132 251.868 248.466 252.402 254.332 255.602ZM498.999 271.202C526.866 275.468 540.866 282.535 552.866 298.535C556.866 303.735 559.666 308.535 559.132 309.068C557.399 310.668 488.999 310.135 476.332 308.268C452.866 304.935 424.199 297.468 411.266 291.335L398.999 285.602L405.399 282.802C414.866 278.668 432.332 273.602 444.332 271.468C458.066 269.068 483.799 268.935 498.999 271.202ZM65.9323 281.602C68.9989 284.802 74.1989 293.068 77.6656 300.002C85.9323 316.668 88.0656 319.468 93.1323 320.535C95.5323 320.935 103.399 323.735 110.599 326.668C117.932 329.602 124.599 331.602 125.266 331.202C128.066 329.468 124.866 318.535 116.332 301.335C111.532 291.602 107.666 282.135 107.666 280.402V277.202L113.266 280.268C116.332 282.002 120.999 286.135 123.666 289.602C130.999 299.335 162.066 354.668 164.999 363.335L167.666 371.068L159.932 379.202C151.266 388.402 141.132 401.335 138.066 407.202L135.932 411.202L116.866 410.802C89.7989 410.268 81.9323 408.668 70.5989 400.935C64.1989 396.668 55.6656 384.535 48.3323 369.068C40.5989 353.068 41.9323 351.868 54.0656 363.735C66.4656 376.002 73.7989 380.135 90.8656 384.802C105.799 388.668 106.332 388.535 109.799 378.402C111.932 371.868 111.932 371.468 109.532 369.735C108.199 368.802 104.332 368.002 100.999 368.002C82.5989 368.002 68.7323 362.268 54.9989 348.802C46.8656 340.935 44.8656 338.135 43.1323 332.135C40.9989 324.935 40.1989 313.202 41.7989 311.602C42.1989 311.202 45.2656 316.135 48.4656 322.668C57.2656 340.135 67.6656 349.468 81.9323 352.535C85.6656 353.468 86.3323 353.068 88.1989 349.468C89.3989 347.335 90.3323 344.002 90.3323 342.135C90.3323 338.535 89.9323 338.402 79.5323 336.668C69.7989 335.202 61.5323 326.535 52.1989 308.402C49.3989 302.668 48.7323 299.735 48.8656 292.002C49.1323 275.068 55.6656 271.068 65.9323 281.602ZM260.732 290.935C262.332 293.335 263.266 295.468 262.999 295.735C262.732 296.002 260.199 294.935 257.132 293.468C254.066 291.868 248.866 290.135 245.399 289.602L238.999 288.668L247.666 287.868C252.466 287.468 256.732 287.068 257.266 286.935C257.666 286.802 259.266 288.668 260.732 290.935ZM414.999 301.335C426.999 306.935 458.066 316.135 476.332 319.602C485.666 321.335 497.532 321.868 528.999 322.135L569.666 322.402L575.266 333.602C584.466 351.468 584.599 350.802 570.732 355.735C558.732 360.002 540.599 362.535 524.332 362.535C519.932 362.402 512.066 362.535 506.732 362.668C489.399 363.068 470.732 359.868 423.132 348.402C413.532 346.135 404.332 342.802 395.932 338.535C383.266 332.002 368.999 322.268 368.999 320.135C368.999 318.402 382.999 300.402 389.399 293.735L394.732 288.135L399.532 292.268C402.199 294.535 409.132 298.668 414.999 301.335ZM376.332 331.868C388.199 341.335 399.666 348.402 410.332 352.802C420.466 356.935 461.799 368.402 476.999 371.335C510.066 377.602 565.266 379.335 582.999 374.668C588.199 373.335 592.466 372.535 592.732 372.668C593.932 373.868 598.732 395.602 602.199 415.335L605.932 437.468L602.466 436.802C594.199 435.202 581.132 433.868 552.466 431.335C523.132 428.802 496.332 424.268 468.332 417.202C411.799 402.802 344.732 375.468 346.066 367.335C347.399 359.335 363.532 324.002 365.799 324.002C366.332 324.002 370.999 327.468 376.332 331.868ZM323.666 387.468C323.666 387.868 318.999 402.135 313.132 419.068C302.599 450.402 294.466 471.468 290.866 477.068L288.866 480.135L284.599 476.535C267.932 462.802 245.799 441.602 229.399 423.602C218.732 412.002 210.199 402.402 210.466 402.002C211.132 401.468 261.266 394.802 296.332 390.668C309.532 389.068 320.599 387.468 320.866 387.202C321.666 386.402 323.666 386.535 323.666 387.468ZM193.932 408.935L208.599 424.668L202.732 439.202C196.999 453.468 190.732 476.002 187.666 493.335C186.732 498.135 185.799 502.802 185.532 503.735C185.266 504.668 180.732 500.135 175.399 493.602C170.066 487.068 160.599 475.468 154.332 468.002C148.066 460.535 142.466 453.735 141.799 452.802C140.199 450.668 147.799 431.735 154.199 422.002C160.199 412.802 176.466 393.335 178.199 393.335C178.866 393.335 185.932 400.402 193.932 408.935ZM337.666 439.735C349.132 457.468 387.932 495.068 420.999 520.535C426.466 524.802 431.266 528.802 431.399 529.468C432.732 532.935 414.599 559.335 401.399 573.335L393.666 581.468L384.332 570.668C379.266 564.668 371.266 554.668 366.732 548.268C357.932 536.002 324.599 481.068 319.532 470.402L316.599 464.135L322.466 444.668C326.999 429.468 328.599 425.602 329.666 427.335C330.332 428.535 333.932 434.135 337.666 439.735ZM218.999 434.135C220.466 435.735 226.866 441.602 233.132 447.202L244.732 457.468L241.532 469.068C235.932 489.335 232.866 508.135 231.266 533.735L229.666 558.668L211.799 538.268L194.066 518.002L194.866 505.335C196.199 482.268 202.866 451.068 210.466 431.068C211.799 427.468 212.866 427.735 218.999 434.135ZM272.466 478.135L283.399 485.602L284.199 507.068C285.666 540.668 289.532 567.335 297.532 598.268C299.266 605.068 300.599 610.668 300.466 610.668C300.199 610.668 296.866 609.602 292.866 608.135C279.799 603.602 262.466 592.002 250.066 579.068L243.799 572.668L242.999 558.668C242.599 550.935 241.932 540.135 241.666 534.535C240.732 521.068 242.999 494.935 246.466 476.268L249.266 461.335L255.532 466.002C258.866 468.535 266.599 474.002 272.466 478.135ZM348.999 548.668C357.532 563.202 366.066 575.602 374.066 585.068C381.132 593.602 381.799 592.668 360.332 603.335C336.999 614.802 330.199 616.402 318.199 613.335L312.066 611.868L306.599 594.268C297.532 565.202 293.132 543.868 289.666 510.135C288.466 499.335 287.932 490.002 288.332 489.602C288.732 489.202 291.399 491.202 294.332 494.002C298.732 498.268 300.199 499.068 302.066 497.868C304.066 496.535 308.732 486.668 310.866 479.335C311.399 477.335 315.799 484.802 326.732 506.668C335.132 523.202 344.999 542.002 348.999 548.668Z" fill="black"/>
<path d="M126.598 18.5346C122.465 21.068 120.465 67.6013 124.198 72.8013C125.265 74.1346 126.598 74.9346 127.132 74.4013C127.665 73.868 128.865 66.9346 129.932 59.068C130.998 51.068 132.598 40.4013 133.665 35.3346C134.732 30.1346 135.665 24.0013 135.665 21.6013C135.665 17.868 135.265 17.3346 132.065 17.3346C129.932 17.3346 127.532 17.868 126.598 18.5346Z" fill="black"/>
<path d="M224.999 28.2685C221.399 30.1351 216.465 34.5351 212.865 39.0685C205.799 48.0018 194.332 67.6018 194.332 70.9351C194.332 75.0685 197.532 73.4685 202.332 66.9351C204.865 63.4685 212.065 55.3351 218.332 48.6685C238.065 28.0018 240.465 20.5351 224.999 28.2685Z" fill="black"/>
<path d="M1.26769 58.9337C1.66769 59.8671 4.73436 62.8004 8.20102 65.3337C11.801 67.8671 21.801 75.6004 30.601 82.2671C43.6677 92.4004 47.001 94.4004 49.001 93.3337C50.3344 92.5337 51.9344 90.8004 52.3344 89.2004C54.4677 82.6671 52.4677 81.0671 28.7344 68.9337C6.60102 57.7337 0.201022 55.3337 1.26769 58.9337Z" fill="black"/>
<path d="M221.665 114.134C213.531 117.2 202.865 119.467 172.331 124.667C156.998 127.334 130.598 132.267 113.665 135.6C96.8648 138.934 81.9315 141.6 80.5981 141.6C76.7315 141.467 76.4648 145.067 80.0648 150.534C81.9315 153.334 86.8648 162.4 90.9981 170.8C99.9315 188.667 117.665 220.534 121.398 225.334C122.731 227.2 125.265 228.8 126.731 228.8C130.731 229.067 150.731 224.134 188.331 213.334C205.931 208.4 226.198 202.667 233.398 200.667C253.531 195.334 267.665 189.467 267.665 186.4C267.665 185.067 266.198 183.334 264.331 182.4C261.798 181.2 259.398 176.667 252.998 160.134C248.465 148.667 242.465 134.934 239.531 129.6C236.731 124.134 234.331 118 234.331 115.867C234.331 112.534 233.798 112 230.731 112.134C228.598 112.134 224.598 113.067 221.665 114.134ZM237.531 138.267C241.798 149.334 251.665 181.467 251.665 184.134C251.665 184.667 249.131 185.467 246.065 186C238.598 187.2 143.798 206.134 134.331 208.4C130.331 209.334 126.065 209.867 124.998 209.6C123.931 209.334 120.065 204.534 116.465 198.934C105.531 182 90.4648 156.8 90.9981 156.267C91.7981 155.467 172.065 181.334 175.398 183.467C176.998 184.534 178.331 186 178.331 186.667C178.331 187.334 179.531 188.534 180.998 189.334C183.265 190.534 184.998 188.667 197.265 170.934C204.865 160 214.865 145.334 219.665 138.267C224.598 131.067 229.265 125.334 230.465 125.334C232.065 125.334 234.065 129.2 237.531 138.267ZM218.065 128.934C216.998 130.267 213.131 134.934 209.665 139.334C206.198 143.734 198.465 152.934 192.598 159.6C183.131 170.534 181.531 171.867 178.465 171.2C159.798 167.067 84.7315 146.934 87.5315 146.8C88.5981 146.667 102.731 144.534 118.865 142C135.131 139.467 163.531 135.2 182.198 132.667C200.865 130 216.465 127.6 216.865 127.334C218.598 125.467 219.798 127.067 218.065 128.934Z" fill="black"/>
<path d="M395.265 142.802C390.732 145.468 385.399 160.002 387.132 164.668C388.465 168.002 390.199 166.935 391.665 161.602C392.332 158.935 394.199 155.202 395.799 153.335L398.465 150.002L397.799 154.668C397.399 157.202 396.599 161.468 396.199 164.135C395.532 168.002 396.065 169.602 398.732 172.668L401.932 176.535L404.332 172.002C405.665 169.468 406.865 163.202 407.265 157.335C407.932 148.002 407.799 146.802 405.132 144.135C402.065 141.068 398.999 140.668 395.265 142.802Z" fill="black"/>
<path d="M400.467 202.267C398.467 202.8 398.2 203.734 398.733 207.6C399.8 213.6 397 220.4 392.333 223.467C389.4 225.467 388.2 225.467 383.533 224.134C377.133 222.134 375.667 222.934 379 226.667C384.733 233.067 395.933 232.8 402.067 226.267C408.333 219.6 411.533 203.867 406.867 202.134C404.6 201.334 404.333 201.334 400.467 202.267Z" fill="black"/>
</svg>
